<?xml version="1.0" encoding="UTF-8" standalone="no"?>
<svg
   xmlns:dc="http://purl.org/dc/elements/1.1/"
   xmlns:cc="http://creativecommons.org/ns#"
   xmlns:rdf="http://www.w3.org/1999/02/22-rdf-syntax-ns#"
   xmlns:svg="http://www.w3.org/2000/svg"
   xmlns="http://www.w3.org/2000/svg"
   id="svg238"
   version="1.1"
   viewBox="0.00 0.00 613.50 596.50"
   height="597pt"
   width="614pt">
  <metadata
     id="metadata244">
    <rdf:RDF>
      <cc:Work
         rdf:about="">
        <dc:format>image/svg+xml</dc:format>
        <dc:type
           rdf:resource="http://purl.org/dc/dcmitype/StillImage" />
        <dc:title></dc:title>
      </cc:Work>
    </rdf:RDF>
  </metadata>
  <defs
     id="defs242" />
  <g
     id="g4958">
    <polygon
       style="fill:none;stroke:none"
       id="polygon4"
       points="370,-353 370,243.5 -243.5,243.5 -243.5,-353 "
       transform="translate(243.5,353)" />
    <g
       class="node"
       id="node2"
       transform="translate(243.5,353)">
      <title
         id="title19">ApplicationController</title>
      <path
         style="fill:none;stroke:#000000"
         id="path21"
         d="m 102,224.5 c 0,0 112,0 112,0 6,0 12,-6 12,-12 0,0 0,-85 0,-85 0,-6 -6,-12 -12,-12 0,0 -112,0 -112,0 -6,0 -12,6 -12,12 0,0 0,85 0,85 0,6 6,12 12,12" />
      <text
         style="font-size:14px;font-family:Times, serif;text-anchor:middle"
         id="text23"
         font-size="14.00"
         y="130.7"
         x="158">ApplicationController</text>
      <polyline
         style="fill:none;stroke:#000000"
         id="polyline25"
         points="90,138.5 226,138.5 " />
      <polyline
         style="fill:none;stroke:#000000"
         id="polyline27"
         points="90,162.5 226,162.5 " />
      <polyline
         style="fill:none;stroke:#000000"
         id="polyline29"
         points="90,186.5 226,186.5 " />
      <text
         style="font-size:14px;font-family:Times, serif;text-anchor:start"
         id="text31"
         font-size="14.00"
         y="201.7"
         x="98">_layout</text>
      <text
         style="font-size:14px;font-family:Times, serif;text-anchor:start"
         id="text33"
         font-size="14.00"
         y="216.7"
         x="98">not_authenticated</text>
    </g>
    <g
       class="node"
       id="node3"
       transform="translate(243.5,353)">
      <title
         id="title36">StaticPagesController</title>
      <path
         style="fill:none;stroke:#000000"
         id="path38"
         d="m -213,-225.5 c 0,0 110,0 110,0 6,0 12,-6 12,-12 0,0 0,-99 0,-99 0,-6 -6,-12 -12,-12 0,0 -110,0 -110,0 -6,0 -12,6 -12,12 0,0 0,99 0,99 0,6 6,12 12,12" />
      <text
         style="font-size:14px;font-family:Times, serif;text-anchor:middle"
         id="text40"
         font-size="14.00"
         y="-333.29999"
         x="-158">StaticPagesController</text>
      <polyline
         style="fill:none;stroke:#000000"
         id="polyline42"
         points="-225,-325.5 -91,-325.5 " />
      <text
         style="font-size:14px;font-family:Times, serif;text-anchor:start"
         id="text44"
         font-size="14.00"
         y="-310.29999"
         x="-217">about</text>
      <text
         style="font-size:14px;font-family:Times, serif;text-anchor:start"
         id="text46"
         font-size="14.00"
         y="-295.29999"
         x="-217">contact</text>
      <text
         style="font-size:14px;font-family:Times, serif;text-anchor:start"
         id="text48"
         font-size="14.00"
         y="-280.29999"
         x="-217">home</text>
      <polyline
         style="fill:none;stroke:#000000"
         id="polyline50"
         points="-225,-272.5 -91,-272.5 " />
      <polyline
         style="fill:none;stroke:#000000"
         id="polyline52"
         points="-225,-248.5 -91,-248.5 " />
      <text
         style="font-size:14px;font-family:Times, serif;text-anchor:start"
         id="text54"
         font-size="14.00"
         y="-233.3"
         x="-217">_layout</text>
    </g>
    <g
       class="node"
       id="node4"
       transform="translate(243.5,353)">
      <title
         id="title57">CoursesController</title>
      <path
         style="fill:none;stroke:#000000"
         id="path59"
         d="m 102,89.5 c 0,0 92,0 92,0 6,0 12,-6 12,-12 0,0 0,-189 0,-189 0,-6 -6,-12 -12,-12 0,0 -92,0 -92,0 -6,0 -12,6 -12,12 0,0 0,189 0,189 0,6 6,12 12,12" />
      <text
         style="font-size:14px;font-family:Times, serif;text-anchor:middle"
         id="text61"
         font-size="14.00"
         y="-108.3"
         x="148">CoursesController</text>
      <polyline
         style="fill:none;stroke:#000000"
         id="polyline63"
         points="90,-100.5 206,-100.5 " />
      <text
         style="font-size:14px;font-family:Times, serif;text-anchor:start"
         id="text65"
         font-size="14.00"
         y="-85.300003"
         x="98">create</text>
      <text
         style="font-size:14px;font-family:Times, serif;text-anchor:start"
         id="text67"
         font-size="14.00"
         y="-70.300003"
         x="98">destroy</text>
      <text
         style="font-size:14px;font-family:Times, serif;text-anchor:start"
         id="text69"
         font-size="14.00"
         y="-55.299999"
         x="98">edit</text>
      <text
         style="font-size:14px;font-family:Times, serif;text-anchor:start"
         id="text71"
         font-size="14.00"
         y="-40.299999"
         x="98">index</text>
      <text
         style="font-size:14px;font-family:Times, serif;text-anchor:start"
         id="text73"
         font-size="14.00"
         y="-25.299999"
         x="98">new</text>
      <text
         style="font-size:14px;font-family:Times, serif;text-anchor:start"
         id="text75"
         font-size="14.00"
         y="-10.3"
         x="98">show</text>
      <text
         style="font-size:14px;font-family:Times, serif;text-anchor:start"
         id="text77"
         font-size="14.00"
         y="4.6999998"
         x="98">update</text>
      <polyline
         style="fill:none;stroke:#000000"
         id="polyline79"
         points="90,12.5 206,12.5 " />
      <polyline
         style="fill:none;stroke:#000000"
         id="polyline81"
         points="90,36.5 206,36.5 " />
      <text
         style="font-size:14px;font-family:Times, serif;text-anchor:start"
         id="text83"
         font-size="14.00"
         y="51.700001"
         x="98">_layout</text>
      <text
         style="font-size:14px;font-family:Times, serif;text-anchor:start"
         id="text85"
         font-size="14.00"
         y="66.699997"
         x="98">course_params</text>
      <text
         style="font-size:14px;font-family:Times, serif;text-anchor:start"
         id="text87"
         font-size="14.00"
         y="81.699997"
         x="98">set_course</text>
    </g>
    <g
       class="node"
       id="node5"
       transform="translate(243.5,353)">
      <title
         id="title90">AdminController</title>
      <path
         style="fill:none;stroke:#000000"
         id="path92"
         d="m 252,-30.5 c 0,0 86,0 86,0 6,0 12,-6 12,-12 0,0 0,-69 0,-69 0,-6 -6,-12 -12,-12 0,0 -86,0 -86,0 -6,0 -12,6 -12,12 0,0 0,69 0,69 0,6 6,12 12,12" />
      <text
         style="font-size:14px;font-family:Times, serif;text-anchor:middle"
         id="text94"
         font-size="14.00"
         y="-108.3"
         x="295">AdminController</text>
      <polyline
         style="fill:none;stroke:#000000"
         id="polyline96"
         points="240,-100.5 350,-100.5 " />
      <text
         style="font-size:14px;font-family:Times, serif;text-anchor:start"
         id="text98"
         font-size="14.00"
         y="-85.300003"
         x="248">users</text>
      <polyline
         style="fill:none;stroke:#000000"
         id="polyline100"
         points="240,-77.5 350,-77.5 " />
      <polyline
         style="fill:none;stroke:#000000"
         id="polyline102"
         points="240,-53.5 350,-53.5 " />
      <text
         style="font-size:14px;font-family:Times, serif;text-anchor:start"
         id="text104"
         font-size="14.00"
         y="-38.299999"
         x="248">_layout</text>
    </g>
    <g
       class="node"
       id="node6"
       transform="translate(243.5,353)">
      <title
         id="title107">UsersController</title>
      <path
         style="fill:none;stroke:#000000"
         id="path109"
         d="m -47.5,-136 c 0,0 89,0 89,0 6,0 12,-6 12,-12 0,0 0,-144 0,-144 0,-6 -6,-12 -12,-12 0,0 -89,0 -89,0 -6,0 -12,6 -12,12 0,0 0,144 0,144 0,6 6,12 12,12" />
      <text
         style="font-size:14px;font-family:Times, serif;text-anchor:middle"
         id="text111"
         font-size="14.00"
         y="-288.79999"
         x="-3">UsersController</text>
      <polyline
         style="fill:none;stroke:#000000"
         id="polyline113"
         points="-59.5,-281 53.5,-281 " />
      <text
         style="font-size:14px;font-family:Times, serif;text-anchor:start"
         id="text115"
         font-size="14.00"
         y="-265.79999"
         x="-51.5">change_password</text>
      <text
         style="font-size:14px;font-family:Times, serif;text-anchor:start"
         id="text117"
         font-size="14.00"
         y="-250.8"
         x="-51.5">change_role</text>
      <text
         style="font-size:14px;font-family:Times, serif;text-anchor:start"
         id="text119"
         font-size="14.00"
         y="-235.8"
         x="-51.5">create</text>
      <text
         style="font-size:14px;font-family:Times, serif;text-anchor:start"
         id="text121"
         font-size="14.00"
         y="-220.8"
         x="-51.5">new</text>
      <text
         style="font-size:14px;font-family:Times, serif;text-anchor:start"
         id="text123"
         font-size="14.00"
         y="-205.8"
         x="-51.5">password</text>
      <polyline
         style="fill:none;stroke:#000000"
         id="polyline125"
         points="-59.5,-198 53.5,-198 " />
      <polyline
         style="fill:none;stroke:#000000"
         id="polyline127"
         points="-59.5,-174 53.5,-174 " />
      <text
         style="font-size:14px;font-family:Times, serif;text-anchor:start"
         id="text129"
         font-size="14.00"
         y="-158.8"
         x="-51.5">_layout</text>
      <text
         style="font-size:14px;font-family:Times, serif;text-anchor:start"
         id="text131"
         font-size="14.00"
         y="-143.8"
         x="-51.5">user_params</text>
    </g>
    <g
       class="node"
       id="node7"
       transform="translate(243.5,353)">
      <title
         id="title134">DashboardController</title>
      <path
         style="fill:none;stroke:#000000"
         id="path136"
         d="m -212.5,119.5 c 0,0 107,0 107,0 6,0 12,-6 12,-12 0,0 0,-69 0,-69 0,-6 -6,-12 -12,-12 0,0 -107,0 -107,0 -6,0 -12,6 -12,12 0,0 0,69 0,69 0,6 6,12 12,12" />
      <text
         style="font-size:14px;font-family:Times, serif;text-anchor:middle"
         id="text138"
         font-size="14.00"
         y="41.700001"
         x="-159">DashboardController</text>
      <polyline
         style="fill:none;stroke:#000000"
         id="polyline140"
         points="-224.5,49.5 -93.5,49.5 " />
      <text
         style="font-size:14px;font-family:Times, serif;text-anchor:start"
         id="text142"
         font-size="14.00"
         y="64.699997"
         x="-216.5">index</text>
      <polyline
         style="fill:none;stroke:#000000"
         id="polyline144"
         points="-224.5,72.5 -93.5,72.5 " />
      <polyline
         style="fill:none;stroke:#000000"
         id="polyline146"
         points="-224.5,96.5 -93.5,96.5 " />
      <text
         style="font-size:14px;font-family:Times, serif;text-anchor:start"
         id="text148"
         font-size="14.00"
         y="111.7"
         x="-216.5">_layout</text>
    </g>
    <g
       class="node"
       id="node8"
       transform="translate(243.5,353)">
      <title
         id="title151">QuestionsController</title>
      <path
         style="fill:none;stroke:#000000"
         id="path153"
         d="m 252,89 c 0,0 102,0 102,0 6,0 12,-6 12,-12 0,0 0,-70 0,-70 0,-6 -6,-12 -12,-12 0,0 -102,0 -102,0 -6,0 -12,6 -12,12 0,0 0,70 0,70 0,6 6,12 12,12" />
      <text
         style="font-size:14px;font-family:Times, serif;text-anchor:middle"
         id="text155"
         font-size="14.00"
         y="10.2"
         x="303">QuestionsController</text>
      <polyline
         style="fill:none;stroke:#000000"
         id="polyline157"
         points="240,18 366,18 " />
      <polyline
         style="fill:none;stroke:#000000"
         id="polyline159"
         points="240,42 366,42 " />
      <polyline
         style="fill:none;stroke:#000000"
         id="polyline161"
         points="240,66 366,66 " />
      <text
         style="font-size:14px;font-family:Times, serif;text-anchor:start"
         id="text163"
         font-size="14.00"
         y="81.199997"
         x="248">_layout</text>
    </g>
    <g
       class="node"
       id="node9"
       transform="translate(243.5,353)">
      <title
         id="title166">QuizzesController</title>
      <path
         style="fill:none;stroke:#000000"
         id="path168"
         d="m -48,119 c 0,0 92,0 92,0 6,0 12,-6 12,-12 0,0 0,-204 0,-204 0,-6 -6,-12 -12,-12 0,0 -92,0 -92,0 -6,0 -12,6 -12,12 0,0 0,204 0,204 0,6 6,12 12,12" />
      <text
         style="font-size:14px;font-family:Times, serif;text-anchor:middle"
         id="text170"
         font-size="14.00"
         y="-93.800003"
         x="-2">QuizzesController</text>
      <polyline
         style="fill:none;stroke:#000000"
         id="polyline172"
         points="-60,-86 56,-86 " />
      <text
         style="font-size:14px;font-family:Times, serif;text-anchor:start"
         id="text174"
         font-size="14.00"
         y="-70.800003"
         x="-52">attempt</text>
      <text
         style="font-size:14px;font-family:Times, serif;text-anchor:start"
         id="text176"
         font-size="14.00"
         y="-55.799999"
         x="-52">create</text>
      <text
         style="font-size:14px;font-family:Times, serif;text-anchor:start"
         id="text178"
         font-size="14.00"
         y="-40.799999"
         x="-52">destroy</text>
      <text
         style="font-size:14px;font-family:Times, serif;text-anchor:start"
         id="text180"
         font-size="14.00"
         y="-25.799999"
         x="-52">edit</text>
      <text
         style="font-size:14px;font-family:Times, serif;text-anchor:start"
         id="text182"
         font-size="14.00"
         y="-10.8"
         x="-52">index</text>
      <text
         style="font-size:14px;font-family:Times, serif;text-anchor:start"
         id="text184"
         font-size="14.00"
         y="4.1999998"
         x="-52">new</text>
      <text
         style="font-size:14px;font-family:Times, serif;text-anchor:start"
         id="text186"
         font-size="14.00"
         y="19.200001"
         x="-52">result</text>
      <text
         style="font-size:14px;font-family:Times, serif;text-anchor:start"
         id="text188"
         font-size="14.00"
         y="34.200001"
         x="-52">show</text>
      <text
         style="font-size:14px;font-family:Times, serif;text-anchor:start"
         id="text190"
         font-size="14.00"
         y="49.200001"
         x="-52">update</text>
      <polyline
         style="fill:none;stroke:#000000"
         id="polyline192"
         points="-60,57 56,57 " />
      <polyline
         style="fill:none;stroke:#000000"
         id="polyline194"
         points="-60,81 56,81 " />
      <text
         style="font-size:14px;font-family:Times, serif;text-anchor:start"
         id="text196"
         font-size="14.00"
         y="96.199997"
         x="-52">_layout</text>
      <text
         style="font-size:14px;font-family:Times, serif;text-anchor:start"
         id="text198"
         font-size="14.00"
         y="111.2"
         x="-52">quiz_params</text>
    </g>
    <g
       class="node"
       id="node10"
       transform="translate(243.5,353)">
      <title
         id="title201">SessionsController</title>
      <path
         style="fill:none;stroke:#000000"
         id="path203"
         d="m -197.5,-0.5 c 0,0 95,0 95,0 6,0 12,-6 12,-12 0,0 0,-99 0,-99 0,-6 -6,-12 -12,-12 0,0 -95,0 -95,0 -6,0 -12,6 -12,12 0,0 0,99 0,99 0,6 6,12 12,12" />
      <text
         style="font-size:14px;font-family:Times, serif;text-anchor:middle"
         id="text205"
         font-size="14.00"
         y="-108.3"
         x="-150">SessionsController</text>
      <polyline
         style="fill:none;stroke:#000000"
         id="polyline207"
         points="-209.5,-100.5 -90.5,-100.5 " />
      <text
         style="font-size:14px;font-family:Times, serif;text-anchor:start"
         id="text209"
         font-size="14.00"
         y="-85.300003"
         x="-201.5">create</text>
      <text
         style="font-size:14px;font-family:Times, serif;text-anchor:start"
         id="text211"
         font-size="14.00"
         y="-70.300003"
         x="-201.5">destroy</text>
      <text
         style="font-size:14px;font-family:Times, serif;text-anchor:start"
         id="text213"
         font-size="14.00"
         y="-55.299999"
         x="-201.5">new</text>
      <polyline
         style="fill:none;stroke:#000000"
         id="polyline215"
         points="-209.5,-47.5 -90.5,-47.5 " />
      <polyline
         style="fill:none;stroke:#000000"
         id="polyline217"
         points="-209.5,-23.5 -90.5,-23.5 " />
      <text
         style="font-size:14px;font-family:Times, serif;text-anchor:start"
         id="text219"
         font-size="14.00"
         y="-8.3000002"
         x="-201.5">_layout</text>
    </g>
    <g
       class="node"
       id="node11"
       transform="translate(243.5,353)">
      <title
         id="title222">AnswersController</title>
      <path
         style="fill:none;stroke:#000000"
         id="path224"
         d="m -227.5,239 c 0,0 95,0 95,0 6,0 12,-6 12,-12 0,0 0,-70 0,-70 0,-6 -6,-12 -12,-12 0,0 -95,0 -95,0 -6,0 -12,6 -12,12 0,0 0,70 0,70 0,6 6,12 12,12" />
      <text
         style="font-size:14px;font-family:Times, serif;text-anchor:middle"
         id="text226"
         font-size="14.00"
         y="160.2"
         x="-180">AnswersController</text>
      <polyline
         style="fill:none;stroke:#000000"
         id="polyline228"
         points="-239.5,168 -120.5,168 " />
      <polyline
         style="fill:none;stroke:#000000"
         id="polyline230"
         points="-239.5,192 -120.5,192 " />
      <polyline
         style="fill:none;stroke:#000000"
         id="polyline232"
         points="-239.5,216 -120.5,216 " />
      <text
         style="font-size:14px;font-family:Times, serif;text-anchor:start"
         id="text234"
         font-size="14.00"
         y="231.2"
         x="-231.5">_layout</text>
    </g>
  </g>
</svg>
