<?xml version="1.0" encoding="UTF-8" standalone="no"?>
<svg
   xmlns:dc="http://purl.org/dc/elements/1.1/"
   xmlns:cc="http://creativecommons.org/ns#"
   xmlns:rdf="http://www.w3.org/1999/02/22-rdf-syntax-ns#"
   xmlns:svg="http://www.w3.org/2000/svg"
   xmlns="http://www.w3.org/2000/svg"
   id="svg209"
   version="1.1"
   viewBox="0 0 526.3428 628"
   height="628pt"
   width="526.68658pt">
  <metadata
     id="metadata215">
    <rdf:RDF>
      <cc:Work
         rdf:about="">
        <dc:format>image/svg+xml</dc:format>
        <dc:type
           rdf:resource="http://purl.org/dc/dcmitype/StillImage" />
        <dc:title></dc:title>
      </cc:Work>
    </rdf:RDF>
  </metadata>
  <defs
     id="defs213" />
  <g
     transform="translate(-231.56324,628)"
     id="node2"
     class="node">
    <title
       id="title19">ApplicationRecord</title>
    <ellipse
       cx="309"
       cy="-567"
       rx="77.1866"
       ry="18"
       id="ellipse21"
       style="fill:none;stroke:#000000" />
    <text
       x="309"
       y="-563.29999"
       font-size="14.00"
       id="text23"
       style="font-size:14px;font-family:Times, serif;text-anchor:middle">ApplicationRecord</text>
  </g>
  <g
     transform="translate(-231.56324,628)"
     id="node3"
     class="node">
    <title
       id="title26">Question</title>
    <path
       d="m 521.5,-159.5 c 0,0 107,0 107,0 6,0 12,-6 12,-12 0,0 0,-82 0,-82 0,-6 -6,-12 -12,-12 0,0 -107,0 -107,0 -6,0 -12,6 -12,12 0,0 0,82 0,82 0,6 6,12 12,12"
       id="path28"
       style="fill:none;stroke:#000000" />
    <text
       x="575"
       y="-250.3"
       font-size="14.00"
       id="text30"
       style="font-size:14px;font-family:Times, serif;text-anchor:middle">Question</text>
    <polyline
       points="509.5,-242.5 640.5,-242.5 "
       id="polyline32"
       style="fill:none;stroke:#000000" />
    <text
       x="517.5"
       y="-227.3"
       font-size="14.00"
       id="text34"
       style="font-size:14px;font-family:Times, serif;text-anchor:start">id :INTEGER</text>
    <text
       x="517.5"
       y="-212.3"
       font-size="14.00"
       id="text36"
       style="font-size:14px;font-family:Times, serif;text-anchor:start">content :text</text>
    <text
       x="517.5"
       y="-197.3"
       font-size="14.00"
       id="text38"
       style="font-size:14px;font-family:Times, serif;text-anchor:start">created_at :datetime</text>
    <text
       x="517.5"
       y="-182.3"
       font-size="14.00"
       id="text40"
       style="font-size:14px;font-family:Times, serif;text-anchor:start">updated_at :datetime</text>
    <text
       x="517.5"
       y="-167.3"
       font-size="14.00"
       id="text42"
       style="font-size:14px;font-family:Times, serif;text-anchor:start">quiz_id :integer</text>
  </g>
  <g
     transform="translate(-231.56324,628)"
     id="node5"
     class="node">
    <title
       id="title45">Answer</title>
    <path
       d="m 521.5,-0.5 c 0,0 107,0 107,0 6,0 12,-6 12,-12 0,0 0,-97 0,-97 0,-6 -6,-12 -12,-12 0,0 -107,0 -107,0 -6,0 -12,6 -12,12 0,0 0,97 0,97 0,6 6,12 12,12"
       id="path47"
       style="fill:none;stroke:#000000" />
    <text
       x="575"
       y="-106.3"
       font-size="14.00"
       id="text49"
       style="font-size:14px;font-family:Times, serif;text-anchor:middle">Answer</text>
    <polyline
       points="509.5,-98.5 640.5,-98.5 "
       id="polyline51"
       style="fill:none;stroke:#000000" />
    <text
       x="517.5"
       y="-83.300003"
       font-size="14.00"
       id="text53"
       style="font-size:14px;font-family:Times, serif;text-anchor:start">id :INTEGER</text>
    <text
       x="517.5"
       y="-68.300003"
       font-size="14.00"
       id="text55"
       style="font-size:14px;font-family:Times, serif;text-anchor:start">content :varchar</text>
    <text
       x="517.5"
       y="-53.299999"
       font-size="14.00"
       id="text57"
       style="font-size:14px;font-family:Times, serif;text-anchor:start">created_at :datetime</text>
    <text
       x="517.5"
       y="-38.299999"
       font-size="14.00"
       id="text59"
       style="font-size:14px;font-family:Times, serif;text-anchor:start">updated_at :datetime</text>
    <text
       x="517.5"
       y="-23.299999"
       font-size="14.00"
       id="text61"
       style="font-size:14px;font-family:Times, serif;text-anchor:start">question_id :integer</text>
    <text
       x="517.5"
       y="-8.3000002"
       font-size="14.00"
       id="text63"
       style="font-size:14px;font-family:Times, serif;text-anchor:start">is_correct :boolean</text>
  </g>
  <g
     transform="translate(-231.56324,628)"
     id="edge1"
     class="edge">
    <title
       id="title66">Question-&gt;Answer</title>
    <path
       d="m 575,-151.145 c 0,6.376 0,12.897 0,19.368"
       id="path68"
       style="fill:none;stroke:#afb0c6" />
    <circle
       cx="575"
       cy="-155.21201"
       id="ellipse70"
       r="4"
       style="fill:none;stroke:#afb0c6" />
    <polygon
       points="575,-126.677 570.5,-121.677 575,-131.677 579.5,-121.677 575,-126.677 575,-121.677 "
       id="polygon72"
       style="fill:#afb0c6;stroke:#afb0c6" />
  </g>
  <g
     transform="translate(-231.56324,628)"
     id="node4"
     class="node">
    <title
       id="title75">User</title>
    <path
       d="m 340.5,-303.5 c 0,0 139,0 139,0 6,0 12,-6 12,-12 0,0 0,-127 0,-127 0,-6 -6,-12 -12,-12 0,0 -139,0 -139,0 -6,0 -12,6 -12,12 0,0 0,127 0,127 0,6 6,12 12,12"
       id="path77"
       style="fill:none;stroke:#000000" />
    <text
       x="410"
       y="-439.29999"
       font-size="14.00"
       id="text79"
       style="font-size:14px;font-family:Times, serif;text-anchor:middle">User</text>
    <polyline
       points="328.5,-431.5 491.5,-431.5 "
       id="polyline81"
       style="fill:none;stroke:#000000" />
    <text
       x="336.5"
       y="-416.29999"
       font-size="14.00"
       id="text83"
       style="font-size:14px;font-family:Times, serif;text-anchor:start">id :INTEGER</text>
    <text
       x="336.5"
       y="-401.29999"
       font-size="14.00"
       id="text85"
       style="font-size:14px;font-family:Times, serif;text-anchor:start">email :varchar</text>
    <text
       x="336.5"
       y="-386.29999"
       font-size="14.00"
       id="text87"
       style="font-size:14px;font-family:Times, serif;text-anchor:start">crypted_password :varchar</text>
    <text
       x="336.5"
       y="-371.29999"
       font-size="14.00"
       id="text89"
       style="font-size:14px;font-family:Times, serif;text-anchor:start">salt :varchar</text>
    <text
       x="336.5"
       y="-356.29999"
       font-size="14.00"
       id="text91"
       style="font-size:14px;font-family:Times, serif;text-anchor:start">username :varchar</text>
    <text
       x="336.5"
       y="-341.29999"
       font-size="14.00"
       id="text93"
       style="font-size:14px;font-family:Times, serif;text-anchor:start">created_at :datetime</text>
    <text
       x="336.5"
       y="-326.29999"
       font-size="14.00"
       id="text95"
       style="font-size:14px;font-family:Times, serif;text-anchor:start">updated_at :datetime</text>
    <text
       x="336.5"
       y="-311.29999"
       font-size="14.00"
       id="text97"
       style="font-size:14px;font-family:Times, serif;text-anchor:start">role :integer</text>
  </g>
  <g
     transform="translate(-231.56324,628)"
     id="node6"
     class="node">
    <title
       id="title100">Course</title>
    <path
       d="m 416.5,-514 c 0,0 107,0 107,0 6,0 12,-6 12,-12 0,0 0,-82 0,-82 0,-6 -6,-12 -12,-12 0,0 -107,0 -107,0 -6,0 -12,6 -12,12 0,0 0,82 0,82 0,6 6,12 12,12"
       id="path102"
       style="fill:none;stroke:#000000" />
    <text
       x="470"
       y="-604.79999"
       font-size="14.00"
       id="text104"
       style="font-size:14px;font-family:Times, serif;text-anchor:middle">Course</text>
    <polyline
       points="404.5,-597 535.5,-597 "
       id="polyline106"
       style="fill:none;stroke:#000000" />
    <text
       x="412.5"
       y="-581.79999"
       font-size="14.00"
       id="text108"
       style="font-size:14px;font-family:Times, serif;text-anchor:start">id :INTEGER</text>
    <text
       x="412.5"
       y="-566.79999"
       font-size="14.00"
       id="text110"
       style="font-size:14px;font-family:Times, serif;text-anchor:start">name :varchar</text>
    <text
       x="412.5"
       y="-551.79999"
       font-size="14.00"
       id="text112"
       style="font-size:14px;font-family:Times, serif;text-anchor:start">teacher_id :integer</text>
    <text
       x="412.5"
       y="-536.79999"
       font-size="14.00"
       id="text114"
       style="font-size:14px;font-family:Times, serif;text-anchor:start">created_at :datetime</text>
    <text
       x="412.5"
       y="-521.79999"
       font-size="14.00"
       id="text116"
       style="font-size:14px;font-family:Times, serif;text-anchor:start">updated_at :datetime</text>
  </g>
  <g
     transform="translate(-231.56324,628)"
     id="edge2"
     class="edge">
    <title
       id="title119">User-&gt;Course</title>
    <path
       d="m 452.982,-464.083 c 1.079,-2.984 2.09,-5.962 3.018,-8.917 3.078,-9.798 5.488,-20.395 7.374,-30.808"
       id="path121"
       style="fill:none;stroke:#bd9940" />
    <polygon
       points="451.117,-459.221 445.125,-456.165 452.908,-463.89 453.528,-452.941 451.117,-459.221 449.326,-454.553 "
       id="polygon123"
       style="fill:#bd9940;stroke:#bd9940" />
    <polygon
       points="464.202,-508.77 469.464,-512.961 463.379,-503.839 460.587,-514.443 464.202,-508.77 465.025,-513.702 "
       id="polygon125"
       style="fill:#bd9940;stroke:#bd9940" />
  </g>
  <g
     transform="translate(-231.56324,628)"
     id="edge3"
     class="edge">
    <title
       id="title128">Course-&gt;User</title>
    <path
       d="m 415.038,-505.328 c -3.189,5.6 -5.944,11.404 -8.038,17.328 -2.615,7.399 -4.295,15.264 -5.276,23.245"
       id="path130"
       style="fill:none;stroke:#5a8add" />
    <polygon
       points="417.743,-509.697 424.2,-511.58 415.111,-505.445 416.548,-516.317 417.743,-509.697 420.374,-513.948 "
       id="polygon132"
       style="fill:#5a8add;stroke:#5a8add" />
    <polygon
       points="401.273,-459.591 396.355,-455.002 401.708,-464.572 405.321,-454.218 401.273,-459.591 400.838,-454.61 "
       id="polygon134"
       style="fill:#5a8add;stroke:#5a8add" />
    <text
       x="429.5"
       y="-476.79999"
       font-size="14.00"
       id="text136"
       style="font-size:14px;font-family:Times, serif;text-anchor:middle">students</text>
  </g>
  <g
     transform="translate(-231.56324,628)"
     id="node9"
     class="node">
    <title
       id="title139">Quiz</title>
    <path
       d="m 521.5,-326 c 0,0 107,0 107,0 6,0 12,-6 12,-12 0,0 0,-82 0,-82 0,-6 -6,-12 -12,-12 0,0 -107,0 -107,0 -6,0 -12,6 -12,12 0,0 0,82 0,82 0,6 6,12 12,12"
       id="path141"
       style="fill:none;stroke:#000000" />
    <text
       x="575"
       y="-416.79999"
       font-size="14.00"
       id="text143"
       style="font-size:14px;font-family:Times, serif;text-anchor:middle">Quiz</text>
    <polyline
       points="509.5,-409 640.5,-409 "
       id="polyline145"
       style="fill:none;stroke:#000000" />
    <text
       x="517.5"
       y="-393.79999"
       font-size="14.00"
       id="text147"
       style="font-size:14px;font-family:Times, serif;text-anchor:start">id :INTEGER</text>
    <text
       x="517.5"
       y="-378.79999"
       font-size="14.00"
       id="text149"
       style="font-size:14px;font-family:Times, serif;text-anchor:start">title :text</text>
    <text
       x="517.5"
       y="-363.79999"
       font-size="14.00"
       id="text151"
       style="font-size:14px;font-family:Times, serif;text-anchor:start">created_at :datetime</text>
    <text
       x="517.5"
       y="-348.79999"
       font-size="14.00"
       id="text153"
       style="font-size:14px;font-family:Times, serif;text-anchor:start">updated_at :datetime</text>
    <text
       x="517.5"
       y="-333.79999"
       font-size="14.00"
       id="text155"
       style="font-size:14px;font-family:Times, serif;text-anchor:start">course_id :integer</text>
  </g>
  <g
     transform="translate(-231.56324,628)"
     id="edge4"
     class="edge">
    <title
       id="title158">Course-&gt;Quiz</title>
    <path
       d="m 503.468,-506.714 c 11.821,20.94 25.131,44.519 37.036,65.608"
       id="path160"
       style="fill:none;stroke:#1a8212" />
    <circle
       cx="501.49399"
       cy="-510.20999"
       id="ellipse162"
       r="4.00002"
       style="fill:none;stroke:#1a8212" />
    <polygon
       points="543.054,-436.59 541.593,-430.024 540.596,-440.944 549.431,-434.448 543.054,-436.59 545.512,-432.236 "
       id="polygon164"
       style="fill:#1a8212;stroke:#1a8212" />
  </g>
  <g
     transform="translate(-231.56324,628)"
     id="node7"
     class="node">
    <title
       id="title167">Ability</title>
    <polygon
       points="553.5,-544 553.5,-590 608.5,-590 608.5,-544 "
       id="polygon169"
       style="fill:none;stroke:#000000" />
    <text
       x="581"
       y="-574.79999"
       font-size="14.00"
       id="text171"
       style="font-size:14px;font-family:Times, serif;text-anchor:middle">Ability</text>
    <polyline
       points="553.5,-567 608.5,-567 "
       id="polyline173"
       style="fill:none;stroke:#000000" />
    <text
       x="581"
       y="-551.79999"
       font-size="14.00"
       id="text175"
       style="font-size:14px;font-family:Times, serif;text-anchor:middle" />
  </g>
  <g
     transform="translate(-231.56324,628)"
     id="node8"
     class="node">
    <title
       id="title178">Result</title>
    <path
       d="m 638.5,-506.5 c 0,0 107,0 107,0 6,0 12,-6 12,-12 0,0 0,-97 0,-97 0,-6 -6,-12 -12,-12 0,0 -107,0 -107,0 -6,0 -12,6 -12,12 0,0 0,97 0,97 0,6 6,12 12,12"
       id="path180"
       style="fill:none;stroke:#000000" />
    <text
       x="692"
       y="-612.29999"
       font-size="14.00"
       id="text182"
       style="font-size:14px;font-family:Times, serif;text-anchor:middle">Result</text>
    <polyline
       points="626.5,-604.5 757.5,-604.5 "
       id="polyline184"
       style="fill:none;stroke:#000000" />
    <text
       x="634.5"
       y="-589.29999"
       font-size="14.00"
       id="text186"
       style="font-size:14px;font-family:Times, serif;text-anchor:start">id :INTEGER</text>
    <text
       x="634.5"
       y="-574.29999"
       font-size="14.00"
       id="text188"
       style="font-size:14px;font-family:Times, serif;text-anchor:start">student_id :integer</text>
    <text
       x="634.5"
       y="-559.29999"
       font-size="14.00"
       id="text190"
       style="font-size:14px;font-family:Times, serif;text-anchor:start">quiz_id :integer</text>
    <text
       x="634.5"
       y="-544.29999"
       font-size="14.00"
       id="text192"
       style="font-size:14px;font-family:Times, serif;text-anchor:start">marks :integer</text>
    <text
       x="634.5"
       y="-529.29999"
       font-size="14.00"
       id="text194"
       style="font-size:14px;font-family:Times, serif;text-anchor:start">created_at :datetime</text>
    <text
       x="634.5"
       y="-514.29999"
       font-size="14.00"
       id="text196"
       style="font-size:14px;font-family:Times, serif;text-anchor:start">updated_at :datetime</text>
  </g>
  <g
     transform="translate(-231.56324,628)"
     id="edge5"
     class="edge">
    <title
       id="title199">Quiz-&gt;Question</title>
    <path
       d="m 575,-317.713 c 0,13.572 0,28.005 0,41.668"
       id="path201"
       style="fill:none;stroke:#1aa6d9" />
    <circle
       cx="575"
       cy="-321.95099"
       id="ellipse203"
       r="4"
       style="fill:none;stroke:#1aa6d9" />
    <polygon
       points="575,-270.775 570.5,-265.775 575,-275.775 579.5,-265.775 575,-270.775 575,-265.775 "
       id="polygon205"
       style="fill:#1aa6d9;stroke:#1aa6d9" />
  </g>
</svg>
